{
    "asset" : {
        "generator" : "Khronos glTF Blender I/O v3.3.32",
        "version" : "2.0"
    },
    "scene" : 0,
    "scenes" : [
        {
            "name" : "Scene",
            "nodes" : [
                0,
                1
            ]
        }
    ],
    "nodes" : [
        {
            "mesh" : 0,
            "name" : "Sphere.003",
            "scale" : [
                0.5800000429153442,
                0.5300000309944153,
                0.48000001907348633
            ],
            "translation" : [
                -0.6534935235977173,
                -0.10105596482753754,
                2.904045343399048
            ]
        },
        {
            "name" : "Circle",
            "rotation" : [
                0.7104511857032776,
                0,
                0,
                0.703746497631073
            ],
            "scale" : [
                0.20000000298023224,
                1,
                0.20000000298023224
            ],
            "translation" : [
                -1.3508425951004028,
                0.5169169902801514,
                3.776782751083374
            ]
        }
    ],
    "materials" : [
        {
            "doubleSided" : true,
            "name" : "Material.005",
            "pbrMetallicRoughness" : {
                "baseColorFactor" : [
                    0.7991026043891907,
                    0.3864290416240692,
                    0.48514989018440247,
                    1
                ],
                "metallicFactor" : 0,
                "roughnessFactor" : 0.5
            }
        },
        {
            "doubleSided" : true,
            "name" : "Material.003",
            "pbrMetallicRoughness" : {
                "baseColorFactor" : [
                    0.7991026043891907,
                    0.3864290416240692,
                    0.48514989018440247,
                    1
                ],
                "metallicFactor" : 0,
                "roughnessFactor" : 0.5
            }
        },
        {
            "doubleSided" : true,
            "name" : "Material.001",
            "pbrMetallicRoughness" : {
                "baseColorFactor" : [
                    0.8000000715255737,
                    0.11261140555143356,
                    0.16197578608989716,
                    1
                ],
                "metallicFactor" : 0,
                "roughnessFactor" : 0.5
            }
        },
        {
            "doubleSided" : true,
            "name" : "Material.004",
            "pbrMetallicRoughness" : {
                "baseColorFactor" : [
                    0.7991026043891907,
                    0.3864290416240692,
                    0.48514989018440247,
                    1
                ],
                "metallicFactor" : 0,
                "roughnessFactor" : 0.5
            }
        },
        {
            "doubleSided" : true,
            "name" : "Material.006",
            "pbrMetallicRoughness" : {
                "baseColorFactor" : [
                    0.0015471415827050805,
                    0.0011218227446079254,
                    0.0013989296276122332,
                    1
                ],
                "metallicFactor" : 0,
                "roughnessFactor" : 0.5
            }
        },
        {
            "doubleSided" : true,
            "name" : "Material.007",
            "pbrMetallicRoughness" : {
                "baseColorFactor" : [
                    0.0015471415827050805,
                    0.0011218227446079254,
                    0.0013989296276122332,
                    1
                ],
                "metallicFactor" : 0,
                "roughnessFactor" : 0.5
            }
        }
    ],
    "meshes" : [
        {
            "name" : "Sphere.003",
            "primitives" : [
                {
                    "attributes" : {
                        "POSITION" : 0,
                        "NORMAL" : 1,
                        "TEXCOORD_0" : 2
                    },
                    "indices" : 3,
                    "material" : 0
                },
                {
                    "attributes" : {
                        "POSITION" : 4,
                        "NORMAL" : 5,
                        "TEXCOORD_0" : 6
                    },
                    "indices" : 7,
                    "material" : 1
                },
                {
                    "attributes" : {
                        "POSITION" : 8,
                        "NORMAL" : 9,
                        "TEXCOORD_0" : 10
                    },
                    "indices" : 11,
                    "material" : 2
                },
                {
                    "attributes" : {
                        "POSITION" : 12,
                        "NORMAL" : 13,
                        "TEXCOORD_0" : 14
                    },
                    "indices" : 15,
                    "material" : 3
                },
                {
                    "attributes" : {
                        "POSITION" : 16,
                        "NORMAL" : 17,
                        "TEXCOORD_0" : 18
                    },
                    "indices" : 19,
                    "material" : 4
                },
                {
                    "attributes" : {
                        "POSITION" : 20,
                        "NORMAL" : 21,
                        "TEXCOORD_0" : 22
                    },
                    "indices" : 19,
                    "material" : 5
                }
            ]
        }
    ],
    "accessors" : [
        {
            "bufferView" : 0,
            "componentType" : 5126,
            "count" : 559,
            "max" : [
                0.9999997019767761,
                1,
                0.9999993443489075
            ],
            "min" : [
                -0.9999990463256836,
                -1,
                -1
            ],
            "type" : "VEC3"
        },
        {
            "bufferView" : 1,
            "componentType" : 5126,
            "count" : 559,
            "type" : "VEC3"
        },
        {
            "bufferView" : 2,
            "componentType" : 5126,
            "count" : 559,
            "type" : "VEC2"
        },
        {
            "bufferView" : 3,
            "componentType" : 5123,
            "count" : 2880,
            "type" : "SCALAR"
        },
        {
            "bufferView" : 4,
            "componentType" : 5126,
            "count" : 559,
            "max" : [
                1.5670175552368164,
                3.521770477294922,
                0.26812970638275146
            ],
            "min" : [
                -0.15711909532546997,
                1.6349782943725586,
                -1.8152028322219849
            ],
            "type" : "VEC3"
        },
        {
            "bufferView" : 5,
            "componentType" : 5126,
            "count" : 559,
            "type" : "VEC3"
        },
        {
            "bufferView" : 6,
            "componentType" : 5126,
            "count" : 559,
            "type" : "VEC2"
        },
        {
            "bufferView" : 7,
            "componentType" : 5123,
            "count" : 2880,
            "type" : "SCALAR"
        },
        {
            "bufferView" : 8,
            "componentType" : 5126,
            "count" : 580,
            "max" : [
                1.5360853672027588,
                3.3348464965820312,
                2.0279409885406494
            ],
            "min" : [
                -3.2275428771972656,
                -0.43873798847198486,
                -2.1387240886688232
            ],
            "type" : "VEC3"
        },
        {
            "bufferView" : 9,
            "componentType" : 5126,
            "count" : 580,
            "type" : "VEC3"
        },
        {
            "bufferView" : 10,
            "componentType" : 5126,
            "count" : 580,
            "type" : "VEC2"
        },
        {
            "bufferView" : 11,
            "componentType" : 5123,
            "count" : 2934,
            "type" : "SCALAR"
        },
        {
            "bufferView" : 12,
            "componentType" : 5126,
            "count" : 559,
            "max" : [
                -0.8921221494674683,
                3.7672224044799805,
                1.3481242656707764
            ],
            "min" : [
                -3.305913209915161,
                1.1257129907608032,
                -1.5685412883758545
            ],
            "type" : "VEC3"
        },
        {
            "bufferView" : 13,
            "componentType" : 5126,
            "count" : 559,
            "type" : "VEC3"
        },
        {
            "bufferView" : 14,
            "componentType" : 5126,
            "count" : 559,
            "type" : "VEC2"
        },
        {
            "bufferView" : 15,
            "componentType" : 5123,
            "count" : 2880,
            "type" : "SCALAR"
        },
        {
            "bufferView" : 16,
            "componentType" : 5126,
            "count" : 559,
            "max" : [
                -1.2742717266082764,
                2.0547733306884766,
                1.9671233892440796
            ],
            "min" : [
                -1.9639263153076172,
                1.3000564575195312,
                1.133790373802185
            ],
            "type" : "VEC3"
        },
        {
            "bufferView" : 17,
            "componentType" : 5126,
            "count" : 559,
            "type" : "VEC3"
        },
        {
            "bufferView" : 18,
            "componentType" : 5126,
            "count" : 559,
            "type" : "VEC2"
        },
        {
            "bufferView" : 19,
            "componentType" : 5123,
            "count" : 2880,
            "type" : "SCALAR"
        },
        {
            "bufferView" : 20,
            "componentType" : 5126,
            "count" : 559,
            "max" : [
                0.8118454217910767,
                2.0547733306884766,
                1.6818169355392456
            ],
            "min" : [
                0.12219074368476868,
                1.3000564575195312,
                0.8484839200973511
            ],
            "type" : "VEC3"
        },
        {
            "bufferView" : 21,
            "componentType" : 5126,
            "count" : 559,
            "type" : "VEC3"
        },
        {
            "bufferView" : 22,
            "componentType" : 5126,
            "count" : 559,
            "type" : "VEC2"
        }
    ],
    "bufferViews" : [
        {
            "buffer" : 0,
            "byteLength" : 6708,
            "byteOffset" : 0,
            "target" : 34962
        },
        {
            "buffer" : 0,
            "byteLength" : 6708,
            "byteOffset" : 6708,
            "target" : 34962
        },
        {
            "buffer" : 0,
            "byteLength" : 4472,
            "byteOffset" : 13416,
            "target" : 34962
        },
        {
            "buffer" : 0,
            "byteLength" : 5760,
            "byteOffset" : 17888,
            "target" : 34963
        },
        {
            "buffer" : 0,
            "byteLength" : 6708,
            "byteOffset" : 23648,
            "target" : 34962
        },
        {
            "buffer" : 0,
            "byteLength" : 6708,
            "byteOffset" : 30356,
            "target" : 34962
        },
        {
            "buffer" : 0,
            "byteLength" : 4472,
            "byteOffset" : 37064,
            "target" : 34962
        },
        {
            "buffer" : 0,
            "byteLength" : 5760,
            "byteOffset" : 41536,
            "target" : 34963
        },
        {
            "buffer" : 0,
            "byteLength" : 6960,
            "byteOffset" : 47296,
            "target" : 34962
        },
        {
            "buffer" : 0,
            "byteLength" : 6960,
            "byteOffset" : 54256,
            "target" : 34962
        },
        {
            "buffer" : 0,
            "byteLength" : 4640,
            "byteOffset" : 61216,
            "target" : 34962
        },
        {
            "buffer" : 0,
            "byteLength" : 5868,
            "byteOffset" : 65856,
            "target" : 34963
        },
        {
            "buffer" : 0,
            "byteLength" : 6708,
            "byteOffset" : 71724,
            "target" : 34962
        },
        {
            "buffer" : 0,
            "byteLength" : 6708,
            "byteOffset" : 78432,
            "target" : 34962
        },
        {
            "buffer" : 0,
            "byteLength" : 4472,
            "byteOffset" : 85140,
            "target" : 34962
        },
        {
            "buffer" : 0,
            "byteLength" : 5760,
            "byteOffset" : 89612,
            "target" : 34963
        },
        {
            "buffer" : 0,
            "byteLength" : 6708,
            "byteOffset" : 95372,
            "target" : 34962
        },
        {
            "buffer" : 0,
            "byteLength" : 6708,
            "byteOffset" : 102080,
            "target" : 34962
        },
        {
            "buffer" : 0,
            "byteLength" : 4472,
            "byteOffset" : 108788,
            "target" : 34962
        },
        {
            "buffer" : 0,
            "byteLength" : 5760,
            "byteOffset" : 113260,
            "target" : 34963
        },
        {
            "buffer" : 0,
            "byteLength" : 6708,
            "byteOffset" : 119020,
            "target" : 34962
        },
        {
            "buffer" : 0,
            "byteLength" : 6708,
            "byteOffset" : 125728,
            "target" : 34962
        },
        {
            "buffer" : 0,
            "byteLength" : 4472,
            "byteOffset" : 132436,
            "target" : 34962
        }
    ],
    "buffers" : [
        {
            "byteLength" : 136908,
            "uri" : "data:application/octet-stream;base64,"
        }
    ]
}
